<?xml version="1.0" encoding="UTF-8" standalone="no"?>
<!DOCTYPE svg PUBLIC "-//W3C//DTD SVG 1.1//EN" "http://www.w3.org/Graphics/SVG/1.1/DTD/svg11.dtd">
<svg xmlns="http://www.w3.org/2000/svg" version="1.1" viewbox="0.00 0.00 282.00 132.00">
<path fill="#f21420" d="
  M 256.43 0.00
  C 270.16 1.68 280.30 11.73 282.00 25.46
  L 282.00 30.44
  C 280.47 42.11 273.60 51.30 262.61 54.83
  Q 257.91 56.34 249.68 56.32
  Q 154.60 56.16 61.59 56.27
  Q 54.39 56.28 47.33 51.89
  C 35.66 44.62 30.92 29.80 36.42 17.08
  C 39.87 9.09 47.18 2.51 56.06 0.70
  Q 57.78 0.35 59.50 0.00
  L 256.43 0.00
  Z
  M 279.85 27.55
  A 25.53 25.53 0.0 0 0 254.32 2.02
  L 61.74 2.02
  A 25.53 25.53 0.0 0 0 36.21 27.55
  L 36.21 28.69
  A 25.53 25.53 0.0 0 0 61.74 54.22
  L 254.32 54.22
  A 25.53 25.53 0.0 0 0 279.85 28.69
  L 279.85 27.55
  Z"
/>
<path fill="#f21420" d="
  M 0.00 57.85
  L 0.00 55.92
  Q 6.22 55.86 12.44 55.88
  Q 20.87 55.92 23.11 54.92
  C 31.74 51.03 32.08 39.03 23.75 34.48
  Q 21.43 33.22 13.85 33.24
  Q 6.92 33.26 0.00 33.24
  L 0.00 31.31
  Q 8.46 31.20 16.94 31.29
  Q 21.24 31.33 23.50 32.25
  C 32.15 35.74 34.54 46.75 28.29 53.53
  C 23.78 58.43 19.69 57.80 11.98 57.86
  Q 5.99 57.91 0.00 57.85
  Z"
/>
<path fill="#f21420" d="
  M 0.00 131.34
  L 0.00 129.40
  Q 57.13 129.36 114.25 129.31
  C 128.55 129.30 139.91 118.84 140.76 104.67
  C 141.49 92.55 133.67 81.39 121.89 78.07
  Q 118.01 76.97 107.59 76.98
  Q 53.79 77.04 0.00 76.96
  L 0.00 75.05
  Q 79.16 74.93 114.25 74.99
  C 124.68 75.01 134.28 80.41 139.26 89.48
  C 147.95 105.30 140.14 124.34 123.30 130.02
  Q 119.19 131.41 107.19 131.40
  Q 53.59 131.38 0.00 131.34
  Z"
/>
</svg>
