<?xml version="1.0" encoding="UTF-8" standalone="no"?>
<!DOCTYPE svg PUBLIC "-//W3C//DTD SVG 1.1//EN" "http://www.w3.org/Graphics/SVG/1.1/DTD/svg11.dtd">
<svg xmlns="http://www.w3.org/2000/svg" version="1.1" viewBox="0.00 0.00 387.00 132.00">
<path fill="#f11521" d="
  M 361.42 0.00
  C 375.50 1.92 385.02 11.50 387.00 25.44
  L 387.00 30.45
  C 385.46 42.08 378.62 51.29 367.68 54.80
  Q 362.76 56.38 355.72 56.36
  Q 264.10 56.10 168.65 56.29
  Q 162.79 56.30 158.83 54.97
  C 142.42 49.46 134.16 31.26 142.27 15.35
  Q 148.85 2.46 164.51 0.00
  L 361.42 0.00
  Z
  M 384.85 27.55
  A 25.53 25.53 0.0 0 0 359.32 2.02
  L 166.74 2.02
  A 25.53 25.53 0.0 0 0 141.21 27.55
  L 141.21 28.69
  A 25.53 25.53 0.0 0 0 166.74 54.22
  L 359.32 54.22
  A 25.53 25.53 0.0 0 0 384.85 28.69
  L 384.85 27.55
  Z"
/>
<path fill="#f11521" d="
  M 136.7405 44.7885
  A 12.97 12.97 0.0 0 1 123.7931 57.7811
  L 33.4133 57.9389
  A 12.97 12.97 0.0 0 1 20.4206 44.9915
  L 20.4195 44.3515
  A 12.97 12.97 0.0 0 1 33.3669 31.3589
  L 123.7467 31.2011
  A 12.97 12.97 0.0 0 1 136.7394 44.1485
  L 136.7405 44.7885
  Z
  M 134.72 44.31
  A 11.05 11.05 0.0 0 0 123.67 33.26
  L 33.41 33.26
  A 11.05 11.05 0.0 0 0 22.36 44.31
  L 22.36 44.81
  A 11.05 11.05 0.0 0 0 33.41 55.86
  L 123.67 55.86
  A 11.05 11.05 0.0 0 0 134.72 44.81
  L 134.72 44.31
  Z"
/>
<path fill="#f11521" d="
  M 0.00 105.55
  L 0.00 100.56
  C 1.93 85.70 13.52 75.02 28.59 75.02
  Q 123.99 74.98 219.64 75.01
  C 237.63 75.02 251.00 91.72 247.18 109.09
  C 244.27 122.29 232.83 131.37 219.50 131.37
  Q 124.44 131.36 29.48 131.39
  C 13.79 131.39 1.72 121.07 0.00 105.55
  Z
  M 245.7388 102.3975
  A 25.58 25.58 0.0 0 0 220.1142 76.8621
  L 27.7145 77.1979
  A 25.58 25.58 0.0 0 0 2.1792 102.8225
  L 2.1812 103.9825
  A 25.58 25.58 0.0 0 0 27.8058 129.5179
  L 220.2055 129.1821
  A 25.58 25.58 0.0 0 0 245.7408 103.5575
  L 245.7388 102.3975
  Z"
/>
</svg>
