<?xml version="1.0" encoding="UTF-8" standalone="no"?>
<!DOCTYPE svg PUBLIC "-//W3C//DTD SVG 1.1//EN" "http://www.w3.org/Graphics/SVG/1.1/DTD/svg11.dtd">
<svg xmlns="http://www.w3.org/2000/svg" version="1.1" viewBox="0.00 0.00 299.00 203.00">
<path fill="#67687a" d="
  M 205.18 0.00
  Q 208.00 1.43 207.37 4.12
  A 0.45 0.44 -69.1 0 0 207.58 4.60
  L 223.75 13.84
  Q 224.31 14.17 224.77 13.71
  C 228.06 10.39 232.56 17.19 227.58 18.90
  Q 226.98 19.10 226.98 19.73
  L 226.98 37.98
  A 0.82 0.81 8.7 0 0 227.56 38.76
  Q 229.98 39.52 229.68 42.26
  Q 229.60 43.04 230.27 43.42
  L 245.85 52.43
  Q 246.37 52.73 246.84 52.36
  Q 249.05 50.62 251.08 52.40
  Q 251.49 52.76 251.96 52.48
  L 267.87 43.25
  Q 268.38 42.96 268.26 42.39
  L 268.16 41.95
  Q 268.05 41.43 268.21 40.92
  C 269.37 37.14 275.15 38.42 274.15 42.41
  Q 274.01 42.98 274.52 43.28
  L 290.17 52.32
  A 1.24 1.22 41.5 0 0 291.51 52.25
  C 295.73 49.13 298.76 56.41 294.43 57.49
  Q 293.81 57.65 293.81 58.28
  L 293.82 76.57
  A 0.86 0.84 10.6 0 0 294.37 77.36
  Q 296.85 78.31 296.55 81.13
  Q 296.49 81.70 297.03 81.91
  Q 297.99 82.30 298.58 83.15
  Q 299.06 83.84 298.34 83.41
  L 296.61 82.37
  Q 296.16 82.10 295.76 82.43
  Q 293.59 84.21 291.51 82.52
  A 0.85 0.84 49.5 0 0 290.54 82.44
  Q 282.62 87.03 275.22 91.28
  Q 273.90 92.03 274.31 93.51
  Q 274.44 93.98 274.16 94.38
  Q 273.35 95.58 272.16 96.16
  Q 271.63 96.42 271.63 97.02
  L 271.62 114.96
  Q 271.62 115.42 271.96 115.72
  C 272.61 116.28 273.30 116.21 273.82 117.02
  Q 274.60 118.24 274.24 119.46
  Q 274.07 120.05 274.60 120.36
  L 290.77 129.67
  Q 291.21 129.92 291.51 129.52
  C 292.36 128.42 294.00 128.29 295.08 129.09
  Q 296.68 130.29 298.20 128.44
  A 0.32 0.32 0.0 0 1 298.76 128.57
  Q 298.80 128.73 298.73 128.88
  Q 298.61 129.15 298.37 129.31
  Q 297.74 129.73 297.06 130.03
  A 0.83 0.83 0.0 0 0 296.56 130.91
  C 297.27 135.95 289.88 136.03 290.44 131.06
  A 1.04 1.04 0.0 0 0 289.94 130.06
  L 274.42 121.09
  Q 273.90 120.79 273.43 121.16
  Q 271.24 122.84 268.89 121.03
  Q 268.56 120.77 268.19 120.98
  L 252.32 130.15
  Q 251.83 130.42 251.91 130.98
  Q 252.29 133.76 249.81 134.64
  Q 249.24 134.84 249.24 135.44
  L 249.25 153.54
  Q 249.26 154.26 249.92 154.52
  Q 252.34 155.47 251.93 158.03
  Q 251.82 158.70 252.42 159.04
  L 268.05 167.99
  Q 268.61 168.31 269.15 167.95
  Q 271.44 166.41 273.46 168.02
  Q 273.90 168.37 274.39 168.08
  L 290.17 158.91
  Q 290.69 158.61 290.58 158.02
  C 289.77 153.63 296.86 152.44 296.68 158.27
  Q 296.66 158.81 297.16 159.03
  Q 298.19 159.49 298.88 160.40
  Q 298.92 160.45 298.87 160.49
  L 298.69 160.69
  A 0.24 0.24 0.0 0 1 298.38 160.72
  L 296.70 159.59
  Q 296.22 159.26 295.77 159.63
  Q 293.51 161.46 291.52 159.62
  Q 291.06 159.20 290.52 159.51
  L 274.68 168.75
  Q 274.17 169.04 274.27 169.62
  Q 274.73 172.32 272.14 173.41
  Q 271.62 173.62 271.62 174.19
  L 271.62 192.22
  Q 271.62 192.79 272.15 193.01
  Q 274.83 194.13 274.26 196.64
  Q 274.14 197.21 274.64 197.50
  L 283.29 202.49
  Q 283.47 202.60 283.37 202.78
  L 283.25 203.01
  Q 283.18 203.12 283.06 203.06
  Q 278.55 200.76 274.32 198.07
  A 0.84 0.84 0.0 0 0 273.31 198.16
  Q 271.29 200.02 269.13 198.22
  Q 268.70 197.86 268.22 198.14
  L 259.42 203.11
  Q 259.23 203.22 259.12 203.02
  L 258.97 202.73
  Q 258.91 202.61 259.02 202.54
  L 267.64 197.69
  Q 268.21 197.37 268.13 196.72
  Q 267.83 194.02 270.29 193.08
  A 0.92 0.91 -10.9 0 0 270.87 192.23
  L 270.87 174.00
  Q 270.87 173.42 270.32 173.24
  Q 267.75 172.40 268.20 169.69
  A 1.05 1.04 -70.5 0 0 267.69 168.61
  L 251.96 159.56
  Q 251.45 159.27 251.00 159.65
  Q 248.98 161.36 246.84 159.70
  Q 246.36 159.33 245.83 159.64
  L 230.00 168.77
  Q 229.48 169.07 229.56 169.66
  Q 229.91 172.41 227.41 173.27
  Q 226.88 173.45 226.88 174.02
  L 226.87 192.27
  Q 226.87 192.90 227.47 193.07
  Q 229.89 193.77 229.64 196.69
  Q 229.59 197.31 230.13 197.62
  L 238.67 202.57
  Q 238.86 202.67 238.75 202.86
  L 238.62 203.08
  Q 238.56 203.19 238.45 203.13
  L 229.74 198.17
  Q 229.22 197.87 228.76 198.25
  Q 227.38 199.36 225.65 198.98
  A 1.03 1.03 0.0 0 1 225.05 198.60
  Q 224.77 198.24 224.33 198.14
  Q 223.70 198.01 223.16 198.36
  Q 219.11 200.93 214.75 203.06
  Q 214.61 203.13 214.53 202.98
  L 214.40 202.73
  Q 214.34 202.61 214.46 202.54
  L 223.22 197.58
  Q 223.73 197.29 223.61 196.71
  Q 223.08 194.08 225.62 193.03
  Q 226.13 192.82 226.13 192.27
  L 226.12 174.00
  Q 226.12 173.35 225.52 173.11
  Q 223.18 172.18 223.70 169.82
  Q 223.86 169.12 223.23 168.76
  L 207.40 159.63
  Q 206.80 159.28 206.27 159.73
  Q 204.34 161.33 202.26 159.74
  A 1.01 1.01 0.0 0 0 201.15 159.67
  L 185.46 168.74
  Q 184.89 169.07 185.00 169.72
  Q 185.42 172.12 182.90 173.25
  Q 182.37 173.48 182.37 174.05
  L 182.36 192.25
  Q 182.36 192.87 182.94 193.08
  Q 185.39 193.97 184.96 196.50
  Q 184.83 197.27 185.50 197.66
  Q 189.64 200.09 194.06 202.49
  Q 194.15 202.54 194.11 202.63
  L 193.97 202.90
  Q 193.86 203.10 193.66 202.99
  L 185.01 198.19
  Q 184.49 197.90 184.04 198.29
  Q 181.99 200.05 179.95 198.20
  Q 179.56 197.84 179.09 198.11
  L 170.13 203.13
  Q 169.97 203.22 169.89 203.07
  L 169.76 202.85
  Q 169.64 202.64 169.85 202.52
  L 178.40 197.69
  A 1.30 1.30 0.0 0 0 179.05 196.42
  Q 178.81 193.92 181.20 192.89
  Q 181.64 192.70 181.64 192.23
  L 181.62 174.01
  Q 181.62 173.42 181.08 173.19
  Q 178.74 172.17 179.05 169.66
  Q 179.13 169.00 178.56 168.67
  L 162.86 159.65
  Q 162.30 159.32 161.78 159.72
  Q 159.69 161.34 157.72 159.69
  Q 157.21 159.26 156.64 159.59
  L 140.77 168.69
  Q 140.28 168.98 140.36 169.55
  Q 140.77 172.22 138.32 173.18
  Q 137.77 173.40 137.77 174.00
  L 137.75 192.05
  A 1.18 1.18 0.0 0 0 138.55 193.17
  Q 140.86 193.96 140.46 196.37
  Q 140.34 197.08 140.95 197.47
  L 149.67 203.00
  Q 149.37 202.98 149.08 203.00
  L 140.66 198.20
  Q 140.16 197.91 139.71 198.27
  Q 137.52 199.96 135.53 198.30
  Q 134.98 197.85 134.37 198.19
  L 125.69 203.00
  L 125.05 203.00
  Q 124.66 202.66 124.98 202.49
  Q 129.29 200.18 133.77 197.45
  Q 134.23 197.17 134.14 196.64
  Q 133.68 194.11 136.27 192.97
  Q 136.75 192.76 136.75 192.24
  L 136.73 174.03
  A 0.91 0.91 0.0 0 0 136.14 173.18
  Q 133.63 172.21 134.17 169.67
  A 0.86 0.86 0.0 0 0 133.76 168.76
  L 117.99 159.63
  Q 117.61 159.41 117.19 159.53
  C 116.51 159.73 116.19 160.31 115.34 160.42
  Q 113.77 160.61 112.95 159.87
  A 1.24 1.24 0.0 0 0 111.50 159.72
  L 95.80 168.75
  Q 95.32 169.03 95.43 169.57
  C 96.40 174.54 88.47 174.54 89.42 169.41
  A 0.61 0.61 0.0 0 0 89.13 168.77
  L 73.04 159.53
  Q 72.59 159.28 72.18 159.60
  Q 70.03 161.36 68.06 159.63
  Q 67.62 159.25 67.11 159.54
  L 51.06 168.78
  Q 50.60 169.05 50.72 169.57
  Q 51.32 172.13 48.70 173.13
  Q 48.12 173.35 48.12 173.97
  L 48.12 192.22
  Q 48.12 192.76 48.62 192.96
  C 53.27 194.83 49.61 200.78 46.25 198.71
  C 43.78 197.18 44.12 194.23 46.82 193.01
  A 0.96 0.94 78.1 0 0 47.38 192.14
  L 47.38 174.02
  Q 47.38 173.45 46.84 173.25
  Q 44.44 172.36 44.71 169.75
  Q 44.80 168.99 44.13 168.61
  L 28.58 159.65
  Q 28.15 159.41 27.69 159.57
  Q 27.08 159.79 26.58 160.19
  Q 26.04 160.63 25.36 160.52
  Q 24.24 160.35 23.30 159.68
  A 1.14 1.14 0.0 0 0 22.07 159.63
  L 6.63 168.61
  Q 6.08 168.93 6.16 169.57
  Q 6.48 172.15 4.05 173.20
  Q 3.51 173.44 3.51 174.03
  L 3.49 192.03
  Q 3.49 192.56 3.95 192.83
  C 9.78 196.32 2.94 202.44 0.00 196.78
  L 0.00 195.07
  Q 0.74 193.58 2.31 192.85
  Q 2.74 192.65 2.74 192.16
  L 2.75 174.21
  Q 2.75 173.61 2.21 173.34
  Q 0.76 172.63 0.00 171.25
  L 0.00 169.53
  C 0.75 167.34 3.44 166.21 5.10 167.95
  A 0.85 0.84 53.0 0 0 6.13 168.10
  L 21.98 158.92
  A 0.91 0.90 -19.6 0 0 22.42 158.01
  Q 22.00 155.27 24.61 154.43
  Q 25.12 154.26 25.12 153.71
  L 25.13 135.43
  A 0.80 0.79 11.9 0 0 24.65 134.70
  C 19.41 132.40 24.43 126.17 27.38 129.32
  A 0.93 0.91 -35.9 0 0 28.51 129.49
  L 44.32 120.36
  Q 44.98 119.98 44.80 119.24
  C 43.79 115.09 51.22 113.91 50.80 119.64
  Q 50.77 120.11 51.17 120.35
  L 67.18 129.53
  Q 67.62 129.79 67.99 129.44
  Q 69.93 127.60 72.21 129.35
  Q 72.71 129.73 73.25 129.42
  Q 80.72 125.12 88.58 120.53
  Q 89.52 119.99 89.30 118.96
  A 1.76 1.73 49.3 0 1 89.36 118.06
  C 90.69 114.26 96.14 115.47 95.41 119.12
  A 1.28 1.28 0.0 0 0 96.02 120.48
  L 111.56 129.44
  Q 112.09 129.74 112.57 129.37
  Q 114.63 127.72 116.88 129.39
  A 0.86 0.86 0.0 0 0 117.83 129.44
  Q 125.66 124.87 133.40 120.50
  Q 133.86 120.24 133.99 119.72
  Q 134.09 119.30 133.97 118.90
  Q 133.84 118.47 133.98 118.05
  Q 134.56 116.35 136.13 115.78
  Q 136.63 115.59 136.63 115.06
  L 136.63 96.95
  Q 136.63 96.36 136.08 96.14
  Q 133.68 95.15 133.90 92.36
  A 1.01 0.99 -73.3 0 0 133.40 91.41
  L 117.76 82.44
  Q 117.21 82.13 116.72 82.52
  C 113.78 84.85 110.33 81.79 112.17 78.44
  Q 112.69 77.48 113.72 77.20
  Q 114.25 77.05 114.25 76.51
  L 114.25 58.25
  Q 114.25 57.70 113.74 57.48
  C 108.90 55.43 113.15 48.91 116.80 52.26
  Q 117.18 52.60 117.62 52.35
  L 133.66 43.09
  Q 134.01 42.89 134.02 42.49
  Q 134.02 42.24 133.93 42.01
  Q 133.84 41.77 133.87 41.51
  C 134.46 36.54 140.83 38.21 139.90 42.46
  Q 139.80 42.96 140.24 43.21
  Q 148.26 47.74 156.28 52.39
  Q 156.48 52.51 156.36 52.70
  L 156.36 52.71
  Q 156.27 52.87 156.11 52.78
  Q 148.17 48.35 140.79 44.01
  Q 140.37 43.76 139.90 43.90
  C 138.29 44.39 137.07 45.64 135.46 43.97
  Q 135.06 43.54 134.55 43.84
  L 118.66 52.99
  Q 118.12 53.30 118.20 53.92
  Q 118.56 56.54 115.95 57.59
  Q 115.50 57.77 115.50 58.26
  L 115.51 76.53
  Q 115.51 77.09 116.04 77.27
  Q 118.65 78.16 118.17 80.94
  A 0.87 0.87 0.0 0 0 118.60 81.84
  L 134.65 91.06
  Q 135.05 91.29 135.40 90.98
  Q 137.38 89.23 139.65 90.89
  Q 140.14 91.24 140.66 90.94
  L 156.37 81.87
  A 0.96 0.95 -10.8 0 0 156.84 81.19
  Q 156.92 80.72 156.82 80.25
  Q 156.70 79.71 156.97 79.22
  C 159.00 75.50 162.28 77.18 162.29 80.93
  Q 162.29 81.56 162.84 81.87
  L 178.47 90.85
  A 0.75 0.74 42.8 0 0 179.27 90.82
  Q 181.59 89.20 183.67 90.80
  Q 184.12 91.14 184.61 90.86
  L 200.46 81.74
  Q 200.98 81.44 200.89 80.85
  Q 200.47 78.26 202.91 77.32
  Q 203.49 77.10 203.49 76.48
  L 203.49 58.23
  Q 203.49 57.67 202.97 57.46
  Q 200.48 56.47 200.90 53.82
  Q 201.00 53.23 200.48 52.94
  L 184.39 43.65
  Q 183.93 43.38 183.64 43.82
  Q 183.18 44.50 182.39 44.58
  Q 179.11 44.92 178.56 42.07
  C 177.69 37.53 185.65 37.26 184.60 42.19
  Q 184.47 42.81 185.01 43.13
  L 200.91 52.36
  A 0.65 0.63 -51.0 0 0 201.66 52.27
  Q 203.63 50.45 205.88 52.15
  Q 206.41 52.54 206.98 52.22
  L 222.68 43.16
  A 0.90 0.89 70.3 0 0 223.11 42.24
  Q 222.67 39.62 225.20 38.58
  Q 225.74 38.37 225.74 37.79
  L 225.74 19.71
  A 0.80 0.79 8.4 0 0 225.17 18.95
  C 223.02 18.27 223.36 16.82 222.94 15.02
  Q 222.82 14.49 222.35 14.22
  L 207.07 5.44
  Q 206.58 5.16 206.13 5.50
  C 202.54 8.18 198.80 2.26 203.40 0.00
  L 205.18 0.00
  Z
  M 207.44 53.77
  C 207.74 55.49 206.92 56.98 205.29 57.53
  Q 204.77 57.70 204.77 58.25
  L 204.77 76.53
  Q 204.77 77.09 205.29 77.30
  Q 207.82 78.30 207.42 80.98
  Q 207.33 81.57 207.85 81.87
  L 223.60 90.95
  A 0.91 0.90 -48.7 0 0 224.60 90.88
  Q 226.75 89.22 228.83 90.91
  A 0.80 0.80 0.0 0 0 229.74 90.98
  L 245.61 81.82
  Q 246.06 81.57 245.98 81.06
  Q 245.55 78.33 248.10 77.31
  Q 248.63 77.10 248.63 76.53
  L 248.62 58.25
  Q 248.62 57.73 248.13 57.55
  Q 245.61 56.65 245.97 53.89
  Q 246.05 53.28 245.52 52.97
  L 229.76 43.89
  Q 229.26 43.60 228.81 43.96
  Q 226.77 45.61 224.59 43.99
  Q 224.09 43.62 223.54 43.94
  L 207.79 53.02
  Q 207.36 53.27 207.44 53.77
  Z
  M 290.59 80.88
  C 290.30 79.37 291.12 77.88 292.58 77.38
  A 0.90 0.90 0.0 0 0 293.19 76.53
  L 293.18 58.25
  A 0.88 0.88 0.0 0 0 292.62 57.43
  Q 290.18 56.48 290.56 53.80
  Q 290.63 53.28 290.18 53.03
  L 274.28 43.86
  Q 273.78 43.57 273.33 43.94
  Q 271.30 45.59 269.19 43.97
  Q 268.70 43.59 268.17 43.90
  L 252.46 52.98
  Q 251.90 53.31 251.97 53.95
  Q 252.27 56.58 249.90 57.50
  Q 249.36 57.72 249.36 58.30
  L 249.37 76.59
  Q 249.37 77.22 249.95 77.44
  Q 252.35 78.36 251.99 80.99
  Q 251.91 81.56 252.41 81.85
  L 268.27 90.99
  Q 268.75 91.27 269.18 90.92
  Q 271.19 89.29 273.39 90.87
  A 0.94 0.93 47.9 0 0 274.42 90.93
  L 290.14 81.84
  Q 290.70 81.52 290.59 80.88
  Z
  M 157.57 129.48
  C 158.98 128.57 160.39 128.21 161.78 129.44
  Q 162.26 129.87 162.82 129.54
  L 178.51 120.48
  Q 179.05 120.17 178.97 119.55
  Q 178.64 116.93 181.07 115.90
  Q 181.65 115.65 181.64 115.02
  L 181.64 96.99
  Q 181.64 96.36 181.06 96.12
  Q 178.61 95.11 178.96 92.50
  Q 179.05 91.85 178.48 91.52
  L 162.94 82.56
  Q 162.31 82.20 161.74 82.63
  Q 159.70 84.15 157.61 82.61
  Q 157.09 82.22 156.52 82.55
  L 140.95 91.54
  A 0.99 0.98 71.9 0 0 140.47 92.50
  Q 140.75 95.19 138.37 96.12
  Q 137.78 96.35 137.78 96.98
  L 137.78 115.06
  A 0.95 0.94 11.0 0 0 138.38 115.94
  Q 140.79 116.90 140.48 119.55
  Q 140.40 120.20 140.96 120.53
  L 156.53 129.51
  Q 157.06 129.81 157.57 129.48
  Z
  M 206.45 82.59
  C 204.89 83.85 203.71 83.44 202.14 82.56
  Q 201.62 82.26 201.10 82.56
  L 185.52 91.54
  Q 184.98 91.85 185.06 92.46
  Q 185.40 95.11 182.97 96.12
  Q 182.40 96.36 182.40 96.97
  L 182.38 115.02
  Q 182.38 115.63 182.94 115.88
  Q 185.37 116.94 185.05 119.55
  Q 184.97 120.15 185.50 120.46
  L 201.19 129.55
  A 0.91 0.90 -49.4 0 0 202.20 129.47
  Q 204.22 127.84 206.38 129.44
  Q 206.91 129.83 207.48 129.50
  L 223.07 120.52
  Q 223.62 120.20 223.54 119.57
  Q 223.22 116.96 225.60 115.95
  Q 226.22 115.69 226.22 115.03
  L 226.23 96.99
  Q 226.23 96.40 225.68 96.17
  Q 223.25 95.15 223.58 92.50
  Q 223.66 91.90 223.13 91.59
  L 207.46 82.52
  Q 206.93 82.21 206.45 82.59
  Z
  M 268.18 119.68
  C 268.26 117.86 268.18 116.53 270.31 115.92
  Q 270.85 115.76 270.85 115.20
  L 270.84 96.79
  Q 270.84 96.23 270.31 96.05
  Q 267.77 95.20 268.19 92.48
  A 0.96 0.95 -71.1 0 0 267.73 91.52
  L 252.00 82.45
  Q 251.43 82.12 250.91 82.53
  Q 248.79 84.22 246.75 82.46
  Q 246.34 82.11 245.87 82.38
  L 229.98 91.54
  Q 229.46 91.84 229.56 92.43
  Q 230.03 95.05 227.53 96.01
  Q 226.88 96.26 226.88 96.96
  L 226.89 115.06
  Q 226.89 115.73 227.51 115.96
  Q 229.96 116.86 229.54 119.43
  A 1.03 1.02 -70.7 0 0 230.04 120.48
  L 245.75 129.54
  Q 246.30 129.86 246.79 129.45
  Q 248.83 127.79 250.82 129.44
  A 1.02 1.01 49.3 0 0 251.98 129.53
  L 267.70 120.47
  Q 268.16 120.21 268.18 119.68
  Z
  M 29.00 131.00
  C 29.17 132.70 28.57 134.05 26.90 134.64
  Q 26.30 134.85 26.30 135.48
  L 26.29 153.70
  Q 26.29 154.23 26.79 154.41
  Q 29.34 155.36 28.98 158.09
  A 0.96 0.96 0.0 0 0 29.45 159.04
  L 45.11 168.09
  Q 45.61 168.38 46.07 168.02
  Q 48.19 166.38 50.35 167.97
  Q 50.88 168.36 51.45 168.03
  L 67.02 159.05
  Q 67.56 158.74 67.49 158.12
  Q 67.14 155.37 69.63 154.46
  Q 70.16 154.27 70.16 153.70
  L 70.17 135.52
  Q 70.17 134.89 69.59 134.66
  Q 67.13 133.69 67.49 131.09
  Q 67.58 130.41 66.99 130.07
  L 51.45 121.09
  Q 50.87 120.76 50.33 121.16
  Q 48.21 122.73 46.16 121.15
  Q 45.63 120.74 45.05 121.07
  L 29.49 130.05
  Q 28.93 130.37 29.00 131.00
  Z
  M 73.55 131.06
  C 73.96 132.69 72.95 134.24 71.37 134.71
  A 0.71 0.70 81.8 0 0 70.87 135.39
  L 70.88 153.76
  A 0.75 0.73 10.3 0 0 71.37 154.45
  Q 73.98 155.37 73.55 158.15
  Q 73.46 158.73 73.97 159.03
  L 89.81 168.16
  Q 90.26 168.42 90.65 168.08
  Q 92.77 166.27 94.98 168.06
  Q 95.41 168.41 95.89 168.13
  L 111.70 158.99
  Q 112.17 158.72 112.08 158.19
  Q 111.60 155.41 114.24 154.45
  Q 114.74 154.27 114.74 153.74
  L 114.74 135.47
  Q 114.74 134.92 114.22 134.72
  Q 111.63 133.73 112.07 131.03
  Q 112.17 130.44 111.64 130.13
  L 95.93 121.07
  Q 95.40 120.76 94.92 121.14
  Q 92.70 122.86 90.64 121.09
  Q 90.23 120.74 89.77 121.01
  L 73.92 130.16
  Q 73.40 130.47 73.55 131.06
  Z
  M 158.81 134.67
  C 156.75 133.90 156.85 132.77 156.75 130.92
  Q 156.72 130.37 156.25 130.10
  L 140.53 121.01
  Q 140.01 120.71 139.54 121.09
  Q 137.46 122.80 135.35 121.07
  Q 134.92 120.72 134.45 120.99
  L 118.61 130.11
  A 0.92 0.92 0.0 0 0 118.16 131.04
  Q 118.54 133.67 116.10 134.61
  A 0.93 0.91 -10.9 0 0 115.51 135.46
  L 115.50 153.52
  Q 115.50 154.22 116.14 154.49
  Q 118.53 155.53 118.14 157.95
  Q 118.02 158.68 118.66 159.05
  L 134.25 168.06
  Q 134.84 168.41 135.38 168.00
  Q 137.51 166.40 139.48 168.02
  Q 139.97 168.42 140.51 168.11
  L 156.28 159.03
  Q 156.81 158.72 156.72 158.11
  Q 156.32 155.51 158.81 154.52
  Q 159.37 154.30 159.38 153.70
  L 159.39 135.50
  A 0.90 0.88 10.6 0 0 158.81 134.67
  Z
  M 162.81 131.15
  C 163.17 132.73 162.20 134.11 160.72 134.65
  A 0.89 0.89 0.0 0 0 160.13 135.49
  L 160.15 153.74
  Q 160.15 154.31 160.69 154.50
  Q 163.18 155.38 162.82 158.11
  Q 162.74 158.72 163.28 159.03
  L 179.05 168.14
  Q 179.57 168.44 180.01 168.04
  C 181.91 166.37 182.77 167.55 184.51 168.14
  Q 184.92 168.28 185.29 168.07
  L 201.02 158.96
  A 0.80 0.79 -20.1 0 0 201.41 158.13
  Q 200.95 155.51 203.44 154.50
  Q 204.08 154.24 204.08 153.55
  L 204.06 135.48
  Q 204.06 134.81 203.44 134.58
  Q 201.00 133.67 201.40 131.02
  A 0.91 0.91 0.0 0 0 200.96 130.10
  L 185.21 121.01
  Q 184.67 120.70 184.18 121.09
  Q 182.05 122.76 180.01 121.09
  Q 179.54 120.69 179.00 121.00
  L 163.26 130.12
  A 0.96 0.95 68.7 0 0 162.81 131.15
  Z
  M 245.98 158.07
  C 245.75 156.44 246.45 155.09 248.03 154.53
  Q 248.60 154.33 248.60 153.73
  L 248.59 135.48
  A 0.99 0.99 0.0 0 0 247.94 134.55
  Q 245.60 133.66 245.99 131.05
  Q 246.07 130.47 245.57 130.18
  L 229.74 121.06
  Q 229.21 120.75 228.75 121.14
  Q 226.75 122.76 224.73 121.18
  Q 224.17 120.75 223.56 121.10
  L 207.87 130.17
  Q 207.33 130.48 207.41 131.10
  Q 207.77 133.67 205.37 134.65
  A 0.91 0.90 78.9 0 0 204.81 135.49
  L 204.82 153.74
  A 0.88 0.88 0.0 0 0 205.40 154.57
  Q 207.82 155.48 207.42 158.16
  Q 207.34 158.69 207.81 158.95
  L 223.67 168.10
  Q 224.22 168.42 224.71 168.01
  Q 226.69 166.37 228.76 168.02
  Q 229.24 168.40 229.78 168.10
  L 245.52 158.99
  Q 246.06 158.68 245.98 158.07
  Z"
/>
<ellipse fill="#67687a" cx="0.00" cy="0.00" transform="translate(159.44,54.41) rotate(75.4)" rx="3.14" ry="2.76"/>
<path fill="#67687a" d="
  M 81.55 203.00
  L 80.29 203.00
  L 88.79 197.78
  A 1.40 1.39 -17.7 0 0 89.45 196.51
  C 89.14 191.45 96.33 191.97 95.57 196.60
  Q 95.46 197.22 96.00 197.53
  L 104.67 202.53
  Q 105.27 202.87 104.58 202.88
  Q 103.93 202.90 103.36 202.54
  Q 99.69 200.27 95.91 198.20
  Q 95.44 197.93 95.00 198.27
  Q 92.67 200.07 90.72 198.23
  Q 90.31 197.85 89.83 198.14
  L 81.55 203.00
  Z"
/>
</svg>
