<?xml version="1.0" encoding="UTF-8" standalone="no"?>
<!DOCTYPE svg PUBLIC "-//W3C//DTD SVG 1.1//EN" "http://www.w3.org/Graphics/SVG/1.1/DTD/svg11.dtd">
<svg xmlns="http://www.w3.org/2000/svg" version="1.1" viewbox="0.00 0.00 455.00 463.00">
<path fill="#ea1726" fill-opacity="0.243" d="
  M 76.52 192.62
  C 72.57 201.51 69.07 210.83 65.15 219.41
  Q 56.71 237.86 49.25 256.73
  C 46.07 264.75 41.46 273.70 38.94 280.33
  Q 35.75 288.71 32.09 304.09
  L 0.00 290.43
  L 0.00 161.76
  Q 0.44 161.10 0.00 160.75
  Q 0.00 160.58 0.00 160.41
  L 76.52 192.62
  Z"
/>
<path fill="#ea1726" fill-opacity="0.204" d="
  M 76.52 192.62
  L 144.27 221.11
  Q 138.29 230.01 133.71 240.47
  Q 118.45 275.31 106.12 306.14
  Q 102.54 315.10 93.93 330.13
  L 32.09 304.09
  Q 35.75 288.71 38.94 280.33
  C 41.46 273.70 46.07 264.75 49.25 256.73
  Q 56.71 237.86 65.15 219.41
  C 69.07 210.83 72.57 201.51 76.52 192.62
  Z"
/>
<path fill="#ea1725" fill-opacity="0.165" d="
  M 144.27 221.11
  L 208.51 248.13
  Q 205.47 253.25 203.18 258.62
  Q 184.86 301.65 166.74 344.76
  Q 164.64 349.74 162.54 358.99
  L 93.93 330.13
  Q 102.54 315.10 106.12 306.14
  Q 118.45 275.31 133.71 240.47
  Q 138.29 230.01 144.27 221.11
  Z"
/>
<path fill="#eb1826" fill-opacity="0.125" d="
  M 208.51 248.13
  L 275.03 276.12
  Q 268.42 287.74 263.10 299.99
  Q 253.22 322.75 242.93 345.33
  Q 239.64 352.54 237.32 358.96
  Q 234.80 365.91 232.42 372.90
  Q 230.15 379.57 227.52 386.31
  L 162.54 358.99
  Q 164.64 349.74 166.74 344.76
  Q 184.86 301.65 203.18 258.62
  Q 205.47 253.25 208.51 248.13
  Z"
/>
<path fill="#eb1a27" fill-opacity="0.090" d="
  M 275.03 276.12
  L 341.30 304.12
  Q 333.87 314.45 329.51 324.84
  C 322.48 341.56 316.29 355.47 309.30 371.64
  Q 306.46 378.21 301.75 388.53
  Q 296.52 399.99 296.08 415.03
  L 227.52 386.31
  Q 230.15 379.57 232.42 372.90
  Q 234.80 365.91 237.32 358.96
  Q 239.64 352.54 242.93 345.33
  Q 253.22 322.75 263.10 299.99
  Q 268.42 287.74 275.03 276.12
  Z"
/>
<path fill="#e91525" fill-opacity="0.051" d="
  M 296.08 415.03
  Q 296.52 399.99 301.75 388.53
  Q 306.46 378.21 309.30 371.64
  C 316.29 355.47 322.48 341.56 329.51 324.84
  Q 333.87 314.45 341.30 304.12
  L 403.26 330.28
  Q 403.73 330.48 403.59 330.97
  Q 402.25 335.66 400.58 339.42
  Q 397.61 346.09 387.15 369.23
  C 384.87 374.27 383.47 379.09 382.03 384.29
  C 379.47 393.51 372.78 400.89 369.90 410.08
  Q 367.26 418.52 362.24 428.31
  C 358.78 435.04 352.72 435.41 346.09 434.85
  Q 342.83 434.57 338.95 432.97
  Q 317.43 424.06 296.08 415.03
  Z"
/>
</svg>
