<?xml version="1.0" encoding="UTF-8" standalone="no"?>
<!DOCTYPE svg PUBLIC "-//W3C//DTD SVG 1.1//EN" "http://www.w3.org/Graphics/SVG/1.1/DTD/svg11.dtd">
<svg xmlns="http://www.w3.org/2000/svg" version="1.1" viewBox="0.00 0.00 166.00 132.00">
<path fill="#f11620" d="
  M 166.00 0.00
  L 166.00 1.98
  Q 154.98 2.79 148.44 9.93
  C 133.02 26.74 143.42 52.42 166.00 54.30
  L 166.00 56.28
  Q 149.86 54.97 142.39 41.34
  C 133.78 25.65 142.91 4.87 160.56 0.85
  Q 162.49 0.42 164.44 0.00
  L 166.00 0.00
  Z"
/>
<path fill="#f11620" d="
  M 136.7405 44.7885
  A 12.97 12.97 0.0 0 1 123.7931 57.7811
  L 33.4133 57.9389
  A 12.97 12.97 0.0 0 1 20.4206 44.9915
  L 20.4195 44.3515
  A 12.97 12.97 0.0 0 1 33.3669 31.3589
  L 123.7467 31.2011
  A 12.97 12.97 0.0 0 1 136.7394 44.1485
  L 136.7405 44.7885
  Z
  M 134.72 44.31
  A 11.05 11.05 0.0 0 0 123.67 33.26
  L 33.41 33.26
  A 11.05 11.05 0.0 0 0 22.36 44.31
  L 22.36 44.81
  A 11.05 11.05 0.0 0 0 33.41 55.86
  L 123.67 55.86
  A 11.05 11.05 0.0 0 0 134.72 44.81
  L 134.72 44.31
  Z"
/>
<path fill="#f11620" d="
  M 166.00 75.03
  L 166.00 76.96
  Q 100.95 77.02 35.90 77.00
  Q 24.90 76.99 21.16 77.98
  Q 13.14 80.10 7.52 87.14
  C -5.97 104.01 6.63 129.39 28.01 129.38
  Q 97.00 129.36 166.00 129.38
  L 166.00 131.33
  Q 102.06 131.38 38.11 131.38
  Q 23.87 131.38 19.10 129.86
  C 8.41 126.46 1.40 116.72 0.00 105.56
  L 0.00 100.56
  C 1.95 85.72 13.45 75.05 28.50 75.03
  Q 97.25 74.96 166.00 75.03
  Z"
/>
</svg>
