<?xml version="1.0" encoding="UTF-8" standalone="no"?>
<!DOCTYPE svg PUBLIC "-//W3C//DTD SVG 1.1//EN" "http://www.w3.org/Graphics/SVG/1.1/DTD/svg11.dtd">
<svg xmlns="http://www.w3.org/2000/svg" version="1.1" viewBox="0.00 0.00 174.00 193.00">
<path fill="#e91826" fill-opacity="0.502" d="
  M 51.19 0.00
  L 0.74 56.73
  Q 0.43 57.08 0.30 56.63
  L 0.00 55.62
  L 0.00 0.59
  Q 0.37 0.45 0.34 0.00
  L 51.19 0.00
  Z"
/>
<path fill="#e91826" fill-opacity="0.502" d="
  M 109.00 0.00
  L 109.68 0.14
  Q 110.16 0.24 109.83 0.60
  L 0.77 122.75
  Q 0.44 123.12 0.28 122.65
  L 0.00 121.87
  L 0.00 73.77
  L 65.88 0.00
  L 109.00 0.00
  Z"
/>
<path fill="#e91826" fill-opacity="0.502" d="
  M 172.23 0.00
  L 172.55 0.18
  Q 172.85 0.34 172.62 0.59
  Q 87.82 92.92 2.66 185.38
  Q 1.65 186.48 0.90 187.63
  Q 0.59 188.08 0.34 187.60
  Q 0.11 187.15 0.00 186.36
  L 0.00 139.88
  L 124.92 0.00
  L 172.23 0.00
  Z"
/>
</svg>
