<?xml version="1.0" encoding="UTF-8" standalone="no"?>
<!DOCTYPE svg PUBLIC "-//W3C//DTD SVG 1.1//EN" "http://www.w3.org/Graphics/SVG/1.1/DTD/svg11.dtd">
<svg xmlns="http://www.w3.org/2000/svg" version="1.1" viewbox="0.00 0.00 229.00 132.00">
<path fill="#f11520" d="
  M 217.95 0.00
  L 225.16 0.00
  L 225.95 0.00
  L 229.00 0.32
  L 229.00 1.82
  Q 200.21 2.04 171.41 2.00
  Q 163.18 1.99 159.23 3.28
  C 143.14 8.55 135.80 27.88 145.41 42.43
  Q 150.38 49.94 159.12 53.01
  Q 162.65 54.26 173.22 54.26
  Q 201.11 54.25 229.00 54.25
  L 229.00 56.22
  Q 199.77 56.30 170.54 56.21
  Q 162.15 56.18 158.31 54.82
  C 142.44 49.21 134.61 31.76 141.93 16.11
  Q 148.22 2.67 164.51 0.00
  L 217.95 0.00
  Z"
/>
<path fill="#f11520" d="
  M 136.7405 44.7885
  A 12.97 12.97 0.0 0 1 123.7931 57.7811
  L 33.4133 57.9389
  A 12.97 12.97 0.0 0 1 20.4206 44.9915
  L 20.4195 44.3515
  A 12.97 12.97 0.0 0 1 33.3669 31.3589
  L 123.7467 31.2011
  A 12.97 12.97 0.0 0 1 136.7394 44.1485
  L 136.7405 44.7885
  Z
  M 134.72 44.31
  A 11.05 11.05 0.0 0 0 123.67 33.26
  L 33.41 33.26
  A 11.05 11.05 0.0 0 0 22.36 44.31
  L 22.36 44.81
  A 11.05 11.05 0.0 0 0 33.41 55.86
  L 123.67 55.86
  A 11.05 11.05 0.0 0 0 134.72 44.81
  L 134.72 44.31
  Z"
/>
<path fill="#f11520" d="
  M 229.00 76.57
  L 229.00 78.70
  Q 224.01 76.99 220.75 76.99
  Q 127.35 77.00 29.00 76.99
  Q 16.22 76.99 8.25 86.25
  C -1.82 97.93 0.59 116.05 13.32 124.70
  Q 20.20 129.38 27.61 129.38
  Q 119.36 129.38 219.75 129.37
  Q 224.09 129.37 229.00 127.64
  L 229.00 129.75
  Q 224.23 131.38 219.76 131.38
  Q 128.80 131.36 37.83 131.38
  Q 23.86 131.39 19.06 129.85
  C 8.39 126.43 1.40 116.72 0.00 105.56
  L 0.00 100.55
  C 2.23 85.37 13.55 74.99 28.75 75.00
  Q 124.38 75.01 220.00 74.98
  Q 224.08 74.98 229.00 76.57
  Z"
/>
</svg>
