<?xml version="1.0" encoding="UTF-8" standalone="no"?>
<!DOCTYPE svg PUBLIC "-//W3C//DTD SVG 1.1//EN" "http://www.w3.org/Graphics/SVG/1.1/DTD/svg11.dtd">
<svg xmlns="http://www.w3.org/2000/svg" version="1.1" viewbox="0.00 0.00 648.00 405.00">
<g stroke-width="2.00" fill="none" stroke-linecap="butt">
<path stroke="#7d1c30" vector-effect="non-scaling-stroke" d="
  M 374.06 0.00
  L 385.59 27.93"
/>
<path stroke="#7d1c30" vector-effect="non-scaling-stroke" d="
  M 428.42 127.91
  L 409.46 83.44"
/>
<path stroke="#7d1c30" vector-effect="non-scaling-stroke" d="
  M 404.87 72.64
  L 390.26 38.92"
/>
</g>
<path fill="#ea1826" d="
  M 374.06 0.00
  L 385.59 27.93
  L 230.24 201.58
  A 0.88 0.85 -68.4 0 1 229.60 201.87
  L 187.57 201.87
  A 0.22 0.21 21.2 0 1 187.41 201.51
  L 372.91 0.00
  L 374.06 0.00
  Z"
/>
<path fill="#102039" d="
  M 547.26 0.00
  L 648.00 237.71
  L 648.00 404.28
  Q 647.66 404.53 647.66 405.00
  L 546.47 405.00
  L 428.42 127.91
  L 409.46 83.44
  L 404.87 72.64
  L 390.26 38.92
  L 385.59 27.93
  L 374.06 0.00
  L 547.26 0.00
  Z"
/>
<path fill="#ea1826" d="
  M 390.26 38.92
  L 404.87 72.64
  L 289.23 201.65
  A 0.68 0.67 20.9 0 1 288.73 201.87
  L 245.03 201.87
  A 0.25 0.24 -69.1 0 1 244.85 201.46
  L 390.26 38.92
  Z"
/>
<path fill="#ea1826" d="
  M 428.42 127.91
  L 360.61 201.37
  Q 360.15 201.87 359.47 201.87
  L 304.04 201.87
  A 0.23 0.23 0.0 0 1 303.87 201.49
  L 409.46 83.44
  L 428.42 127.91
  Z"
/>
<path fill="#ea1826" d="
  M 48.32 405.00
  L 0.03 405.00
  L 176.88 213.01
  Q 177.23 212.62 177.75 212.62
  L 219.76 212.63
  A 0.28 0.28 0.0 0 1 219.97 213.10
  L 48.32 405.00
  Z"
/>
<path fill="#ea1826" d="
  M 107.40 405.00
  L 62.86 405.00
  L 234.69 212.84
  A 1.07 1.07 0.0 0 1 235.49 212.48
  L 278.53 212.48
  Q 279.59 212.48 278.89 213.27
  L 107.40 405.00
  Z"
/>
<path fill="#ea1826" d="
  M 172.54 405.00
  L 121.83 405.00
  L 293.44 213.11
  Q 293.87 212.63 294.51 212.63
  L 349.54 212.62
  A 0.29 0.29 0.0 0 1 349.75 213.10
  L 172.54 405.00
  Z"
/>
</svg>
